<?xml version="1.0" encoding="UTF-8"?>
<svg xmlns="http://www.w3.org/2000/svg" xmlns:xlink="http://www.w3.org/1999/xlink" width="243px" height="214px" viewBox="0 0 243 214" version="1.1">
<g id="surface1">
<path style=" stroke:none;fill-rule:nonzero;fill:rgb(0%,0%,0%);fill-opacity:1;" d="M 56.699219 35.667969 C 56.699219 31.726562 60.324219 28.535156 64.800781 28.535156 L 113.398438 28.535156 C 117.875 28.535156 121.5 25.339844 121.5 21.402344 C 121.5 17.460938 117.875 14.269531 113.398438 14.269531 L 64.800781 14.269531 C 51.378906 14.269531 40.5 23.847656 40.5 35.667969 L 40.5 135.53125 C 40.5 147.351562 51.378906 156.933594 64.800781 156.933594 L 178.199219 156.933594 C 191.621094 156.933594 202.496094 147.351562 202.496094 135.53125 L 202.496094 92.730469 C 202.496094 88.792969 198.871094 85.597656 194.398438 85.597656 C 189.925781 85.597656 186.296875 88.792969 186.296875 92.730469 L 186.296875 135.53125 C 186.296875 139.472656 182.671875 142.667969 178.199219 142.667969 L 64.800781 142.667969 C 60.324219 142.667969 56.699219 139.472656 56.699219 135.53125 Z M 56.699219 35.667969 "/>
<path style=" stroke:none;fill-rule:evenodd;fill:rgb(0%,0%,0%);fill-opacity:1;" d="M 150.984375 15.917969 C 148.570312 14.148438 145.210938 13.765625 142.363281 14.941406 C 139.519531 16.113281 137.699219 18.632812 137.699219 21.398438 L 137.699219 39.742188 L 135 39.742188 C 109.132812 39.742188 89.101562 59.375 89.101562 82.542969 L 89.101562 87.636719 C 89.101562 90.566406 91.136719 93.199219 94.230469 94.273438 C 97.328125 95.347656 100.851562 94.648438 103.125 92.503906 L 112.070312 84.0625 C 118.703125 77.804688 127.574219 74.390625 136.695312 74.390625 L 137.703125 74.390625 L 137.703125 92.734375 C 137.703125 95.5 139.519531 98.019531 142.367188 99.195312 C 145.210938 100.367188 148.570312 99.984375 150.988281 98.214844 L 199.585938 62.546875 C 201.433594 61.191406 202.5 59.183594 202.5 57.066406 C 202.5 54.949219 201.433594 52.945312 199.585938 51.589844 Z M 153.902344 46.875 L 153.902344 36.628906 L 181.75 57.066406 L 153.902344 77.503906 L 153.902344 67.257812 C 153.902344 63.316406 150.273438 60.125 145.800781 60.125 L 136.695312 60.125 C 127.152344 60.125 117.941406 62.601562 110 67.117188 C 115.371094 59.128906 124.753906 54.011719 135 54.011719 L 145.800781 54.011719 C 150.273438 54.011719 153.902344 50.816406 153.902344 46.875 Z M 153.902344 46.875 "/>
</g>
</svg>
